<?xml version="1.0" encoding="UTF-8" standalone="no"?>
<!DOCTYPE svg PUBLIC "-//W3C//DTD SVG 20010904//EN"
"http://www.w3.org/TR/2001/REC-SVG-20010904/DTD/svg10.dtd">
<!-- Created with Inkscape ("http://www.inkscape.org/") -->
<svg
   id="svg1"
   sodipodi:version="0.32"
   inkscape:version="0.36"
   width="552.76pt"
   height="210mm"
   sodipodi:docbase="/root"
   sodipodi:docname="/root/Pokalturnier.svg"
   xmlns="http://www.w3.org/2000/svg"
   xmlns:sodipodi="http://sodipodi.sourceforge.net/DTD/sodipodi-0.dtd"
   xmlns:inkscape="http://www.inkscape.org/namespaces/inkscape"
   xmlns:xml="http://www.w3.org/XML/1998/namespace"
   xmlns:xlink="http://www.w3.org/1999/xlink">
  <defs
     id="defs3" />
  <sodipodi:namedview
     id="base"
     showgrid="true"
     snaptogrid="true"
     snaptoguides="true"
     borderlayer="top"
     showborder="true" />
  <rect
     style="font-size:12;fill:#ffffff;fill-rule:evenodd;stroke:#000000;stroke-width:1.3467;"
     id="background"
     width="690.944885"
     height="744.094421"
     x="0.000000"
     y="0.000068"
     sodipodi:insensitive="1" />
  <path
     style="font-size:12;fill:#ffffff;fill-rule:evenodd;stroke:#000000;stroke-width:0.670781;"
     d="M 544.266 549.213 L 544.266 584.646 L 659.055 584.646 L 659.055 549.213 L 544.266 549.213 z M 544.266 513.78 L 544.266 549.213 L 659.055 549.213 L 659.055 513.78 L 544.266 513.78 z "
     id="path682" />
  <path
     style="font-size:12;fill:#ffffff;fill-rule:evenodd;stroke:#000000;stroke-width:0.727119;"
     d="M 318.809 283.465 L 318.809 318.898 L 453.691 318.898 L 453.691 283.465 L 318.809 283.465 z M 318.809 248.032 L 318.809 283.465 L 453.691 283.465 L 453.691 248.032 L 318.809 248.032 z "
     id="path654" />
  <path
     style="font-size:12;fill:#ffffff;fill-rule:evenodd;stroke:#000000;stroke-width:0.727119;"
     d="M 318.81 106.299 L 318.81 141.733 L 453.691 141.733 L 453.691 106.299 L 318.81 106.299 z M 318.81 70.8661 L 318.81 106.299 L 453.691 106.299 L 453.691 70.8661 L 318.81 70.8661 z "
     id="path647" />
  <path
     style="font-size:12;fill:#ffffff;fill-rule:evenodd;stroke:#000000;stroke-width:0.899019;fill-opacity:1;"
     d="M 28.4949 593.532 L 28.4949 628.965 L 234.689 628.965 L 234.689 593.532 L 28.4949 593.532 z M 28.4949 558.099 L 28.4949 593.532 L 234.689 593.532 L 234.689 558.099 L 28.4949 558.099 z "
     id="path645" />
  <path
     style="font-size:12;fill:#ffffff;fill-rule:evenodd;stroke:#000000;stroke-width:0.899019;fill-opacity:1;"
     d="M 28.4949 682.114 L 28.4949 717.547 L 234.689 717.547 L 234.689 682.114 L 28.4949 682.114 z M 28.4949 646.681 L 28.4949 682.114 L 234.689 682.114 L 234.689 646.681 L 28.4949 646.681 z "
     id="path646" />
  <path
     style="font-size:12;fill:#ffffff;fill-rule:evenodd;stroke:#000000;stroke-width:0.899019;fill-opacity:1;"
     d="M 28.4949 327.784 L 28.4949 363.217 L 234.689 363.217 L 234.689 327.784 L 28.4949 327.784 z M 28.4949 292.351 L 28.4949 327.784 L 234.689 327.784 L 234.689 292.351 L 28.4949 292.351 z "
     id="path642" />
  <path
     style="font-size:12;fill:#ffffff;fill-rule:evenodd;stroke:#000000;stroke-width:0.899019;fill-opacity:1;"
     d="M 28.4949 416.366 L 28.4949 451.799 L 234.689 451.799 L 234.689 416.366 L 28.4949 416.366 z M 28.4949 380.933 L 28.4949 416.366 L 234.689 416.366 L 234.689 380.933 L 28.4949 380.933 z "
     id="path644" />
  <path
     style="font-size:12;fill:#ffffff;fill-rule:evenodd;stroke:#000000;stroke-width:0.899019;fill-opacity:1;"
     d="M 28.4949 504.949 L 28.4949 540.382 L 234.689 540.382 L 234.689 504.949 L 28.4949 504.949 z M 28.4949 469.516 L 28.4949 504.949 L 234.689 504.949 L 234.689 469.516 L 28.4949 469.516 z "
     id="path643" />
  <path
     style="font-size:12;fill:#ffffff;fill-rule:evenodd;stroke:#000000;stroke-width:0.899019;fill-opacity:1;"
     d="M 28.4949 239.201 L 28.4949 274.634 L 234.689 274.634 L 234.689 239.201 L 28.4949 239.201 z M 28.4949 203.768 L 28.4949 239.201 L 234.689 239.201 L 234.689 203.768 L 28.4949 203.768 z "
     id="path641" />
  <path
     style="font-size:12;fill:#ffffff;fill-rule:evenodd;stroke:#000000;stroke-width:0.899019;fill-opacity:1;"
     d="M 28.4949 150.618 L 28.4949 186.051 L 234.689 186.051 L 234.689 150.618 L 28.4949 150.618 z M 28.4949 115.185 L 28.4949 150.618 L 234.689 150.618 L 234.689 115.185 L 28.4949 115.185 z "
     id="path640" />
  <path
     style="font-size:12;fill:#ffffff;fill-rule:evenodd;stroke:#000000;stroke-width:0.899019;fill-opacity:1;"
     d="M 28.4949 62.0362 L 28.4949 97.4692 L 234.689 97.4692 L 234.689 62.0362 L 28.4949 62.0362 z M 28.4949 26.6033 L 28.4949 62.0362 L 234.689 62.0362 L 234.689 26.6033 L 28.4949 26.6033 z "
     id="path639" />
  <text
     xml:space="preserve"
     style="fill:black;stroke:none;font-family:DejaVu Sans;font-style:normal;font-weight:bold;font-size:18;fill-opacity:0.75;stroke-opacity:1;stroke-width:3pt;stroke-linejoin:miter;stroke-linecap:butt;text-anchor:start;writing-mode:lr;"
     x="38.2779541"
     y="50.3618660"
     id="text563"
     sodipodi:linespacing="100%">
    <tspan
       x="38.2779541"
       y="50.3618660"
       sodipodi:role="line"
       id="tspan580">Leimgruber, Jared</tspan>
  </text>
  <text
     xml:space="preserve"
     style="fill:black;stroke:none;font-family:DejaVu Sans;font-style:normal;font-weight:bold;font-size:18;text-anchor:start;writing-mode:lr;fill-opacity:0.75;stroke-opacity:1;stroke-width:3pt;stroke-linejoin:miter;stroke-linecap:butt;"
     x="39.0371056"
     y="86.2439041"
     id="text588">
    <tspan
       id="tspan589">Anton</tspan>
  </text>
  <text
     xml:space="preserve"
     style="fill:black;stroke:none;font-family:DejaVu Sans;font-style:normal;font-weight:bold;font-size:18;text-anchor:start;writing-mode:lr;fill-opacity:0.75;stroke-opacity:1;stroke-width:3pt;stroke-linejoin:miter;stroke-linecap:butt;"
     x="37.4726524"
     y="139.668762"
     id="text591">
    <tspan
       id="tspan592">Messer</tspan>
  </text>
  <text
     xml:space="preserve"
     style="fill:black;stroke:none;font-family:DejaVu Sans;font-style:normal;font-weight:bold;font-size:18;text-anchor:start;writing-mode:lr;fill-opacity:0.75;stroke-opacity:1;stroke-width:3pt;stroke-linejoin:miter;stroke-linecap:butt;"
     x="37.8330040"
     y="174.967422"
     id="text594">
    <tspan
       id="tspan595">Schmidt</tspan>
  </text>
  <text
     xml:space="preserve"
     style="fill:black;stroke:none;font-family:DejaVu Sans;font-style:normal;font-weight:bold;font-size:18;text-anchor:start;writing-mode:lr;fill-opacity:0.75;stroke-opacity:1;stroke-width:3pt;stroke-linejoin:miter;stroke-linecap:butt;"
     x="37.4726219"
     y="228.228668"
     id="text600">
    <tspan
       id="tspan601">Hügelschäfer</tspan>
  </text>
  <text
     xml:space="preserve"
     style="fill:black;stroke:none;font-family:DejaVu Sans;font-style:normal;font-weight:bold;font-size:18;text-anchor:start;writing-mode:lr;fill-opacity:0.75;stroke-opacity:1;stroke-width:3pt;stroke-linejoin:miter;stroke-linecap:butt;"
     x="37.4726219"
     y="263.690948"
     id="text603">
    <tspan
       id="tspan604">Brunner</tspan>
  </text>
  <text
     xml:space="preserve"
     style="fill:black;stroke:none;font-family:DejaVu Sans;font-style:normal;font-weight:bold;font-size:18;text-anchor:start;writing-mode:lr;fill-opacity:0.75;stroke-opacity:1;stroke-width:3pt;stroke-linejoin:miter;stroke-linecap:butt;"
     x="37.5677795"
     y="316.520935"
     id="text606">
    <tspan
       id="tspan607">Schupp</tspan>
  </text>
  <text
     xml:space="preserve"
     style="fill:black;stroke:none;font-family:DejaVu Sans;font-style:normal;font-weight:bold;font-size:18;text-anchor:start;writing-mode:lr;fill-opacity:0.75;stroke-opacity:1;stroke-width:3pt;stroke-linejoin:miter;stroke-linecap:butt;"
     x="37.4387360"
     y="352.414490"
     id="text609">
    <tspan
       id="tspan610">Pfeiffer</tspan>
  </text>
  <text
     xml:space="preserve"
     style="fill:black;stroke:none;font-family:DejaVu Sans;font-style:normal;font-weight:bold;font-size:18;text-anchor:start;writing-mode:lr;fill-opacity:0.75;stroke-opacity:1;stroke-width:3pt;stroke-linejoin:miter;stroke-linecap:butt;"
     x="39.2730141"
     y="404.885406"
     id="text612">
    <tspan
       id="tspan613">Iwanicki</tspan>
  </text>
  <text
     xml:space="preserve"
     style="fill:black;stroke:none;font-family:DejaVu Sans;font-style:normal;font-weight:bold;font-size:18;text-anchor:start;writing-mode:lr;fill-opacity:0.75;stroke-opacity:1;stroke-width:3pt;stroke-linejoin:miter;stroke-linecap:butt;"
     x="37.8661804"
     y="438.275940"
     id="text615">
    <tspan
       id="tspan616">Leimgruber, Jakob</tspan>
  </text>
  <text
     xml:space="preserve"
     style="fill:black;stroke:none;font-family:DejaVu Sans;font-style:normal;font-weight:bold;font-size:18;text-anchor:start;writing-mode:lr;fill-opacity:0.75;stroke-opacity:1;stroke-width:3pt;stroke-linejoin:miter;stroke-linecap:butt;"
     x="37.4725609"
     y="493.608948"
     id="text618">
    <tspan
       id="tspan619">Hartmann</tspan>
  </text>
  <text
     xml:space="preserve"
     style="fill:black;stroke:none;font-family:DejaVu Sans;font-style:normal;font-weight:bold;font-size:18;text-anchor:start;writing-mode:lr;fill-opacity:0.75;stroke-opacity:1;stroke-width:3pt;stroke-linejoin:miter;stroke-linecap:butt;"
     x="37.4725609"
     y="528.907532"
     id="text621">
    <tspan
       id="tspan622">Reinhold</tspan>
  </text>
  <text
     xml:space="preserve"
     style="fill:black;stroke:none;font-family:DejaVu Sans;font-style:normal;font-weight:bold;font-size:18;text-anchor:start;writing-mode:lr;fill-opacity:0.75;stroke-opacity:1;stroke-width:3pt;stroke-linejoin:miter;stroke-linecap:butt;"
     x="37.4726219"
     y="582.238770"
     id="text624">
    <tspan
       id="tspan625">Heusel</tspan>
  </text>
  <text
     xml:space="preserve"
     style="fill:black;stroke:none;font-family:DejaVu Sans;font-style:normal;font-weight:bold;font-size:18;text-anchor:start;writing-mode:lr;fill-opacity:0.75;stroke-opacity:1;stroke-width:3pt;stroke-linejoin:miter;stroke-linecap:butt;"
     x="37.7713890"
     y="617.631042"
     id="text627">
    <tspan
       id="tspan628">Wenzel</tspan>
  </text>
  <text
     xml:space="preserve"
     style="fill:black;stroke:none;font-family:DejaVu Sans;font-style:normal;font-weight:bold;font-size:18;text-anchor:start;writing-mode:lr;fill-opacity:0.75;stroke-opacity:1;stroke-width:3pt;stroke-linejoin:miter;stroke-linecap:butt;"
     x="37.4726524"
     y="671.055969"
     id="text630">
    <tspan
       id="tspan631">Budimir</tspan>
  </text>
  <text
     xml:space="preserve"
     style="fill:black;stroke:none;font-family:DejaVu Sans;font-style:normal;font-weight:bold;font-size:18;text-anchor:start;writing-mode:lr;fill-opacity:0.75;stroke-opacity:1;stroke-width:3pt;stroke-linejoin:miter;stroke-linecap:butt;"
     x="36.3779335"
     y="705.400574"
     id="text633">
    <tspan
       id="tspan634">(freilos)</tspan>
  </text>
  <text
     xml:space="preserve"
     style="fill:black;stroke:none;font-family:DejaVu Sans;font-style:normal;font-weight:bold;font-size:18;text-anchor:start;writing-mode:lr;fill-opacity:0.75;stroke-opacity:1;stroke-width:3pt;stroke-linejoin:miter;stroke-linecap:butt;"
     x="333.579559"
     y="130.127686"
     id="text648">
    <tspan
       id="tspan649">Anton</tspan>
  </text>
  <text
     xml:space="preserve"
     style="fill:black;stroke:none;font-family:DejaVu Sans;font-style:normal;font-weight:bold;font-size:18;text-anchor:start;writing-mode:lr;fill-opacity:0.75;stroke-opacity:1;stroke-width:3pt;stroke-linejoin:miter;stroke-linecap:butt;"
     x="332.375458"
     y="95.2031937"
     id="text651">
    <tspan
       id="tspan652">Schmidt</tspan>
  </text>
  <text
     xml:space="preserve"
     style="fill:black;stroke:none;font-family:DejaVu Sans;font-style:normal;font-weight:bold;font-size:18;text-anchor:start;writing-mode:lr;fill-opacity:0.75;stroke-opacity:1;stroke-width:3pt;stroke-linejoin:miter;stroke-linecap:butt;"
     x="335.111389"
     y="271.970825"
     id="text655">
    <tspan
       id="tspan656">Brunner</tspan>
  </text>
  <text
     xml:space="preserve"
     style="fill:black;stroke:none;font-family:DejaVu Sans;font-style:normal;font-weight:bold;font-size:18;text-anchor:start;writing-mode:lr;fill-opacity:0.75;stroke-opacity:1;stroke-width:3pt;stroke-linejoin:miter;stroke-linecap:butt;"
     x="333.406281"
     y="307.628479"
     id="text658">
    <tspan
       id="tspan659">Schupp</tspan>
  </text>
  <path
     style="font-size:12;fill:#ffffff;fill-rule:evenodd;stroke:#000000;stroke-width:0.727119;"
     d="M 318.811 460.63 L 318.811 496.063 L 453.691 496.063 L 453.691 460.63 L 318.811 460.63 z M 318.811 425.197 L 318.811 460.63 L 453.691 460.63 L 453.691 425.197 L 318.811 425.197 z "
     id="path661" />
  <text
     xml:space="preserve"
     style="fill:black;stroke:none;font-family:DejaVu Sans;font-style:normal;font-weight:bold;font-size:18;text-anchor:start;writing-mode:lr;fill-opacity:0.75;stroke-opacity:1;stroke-width:3pt;stroke-linejoin:miter;stroke-linecap:butt;"
     x="335.110443"
     y="449.420868"
     id="text662">
    <tspan
       id="tspan663">Iwanicki</tspan>
  </text>
  <text
     xml:space="preserve"
     style="fill:black;stroke:none;font-family:DejaVu Sans;font-style:normal;font-weight:bold;font-size:18;text-anchor:start;writing-mode:lr;fill-opacity:0.75;stroke-opacity:1;stroke-width:3pt;stroke-linejoin:miter;stroke-linecap:butt;"
     x="335.110443"
     y="484.719482"
     id="text665">
    <tspan
       id="tspan666">Reinhold</tspan>
  </text>
  <path
     style="font-size:12;fill:#ffffff;fill-rule:evenodd;stroke:#000000;stroke-width:0.727119;"
     d="M 318.809 637.795 L 318.809 673.228 L 453.691 673.228 L 453.691 637.795 L 318.809 637.795 z M 318.809 602.362 L 318.809 637.795 L 453.691 637.795 L 453.691 602.362 L 318.809 602.362 z "
     id="path668" />
  <text
     xml:space="preserve"
     style="fill:black;stroke:none;font-family:DejaVu Sans;font-style:normal;font-weight:bold;font-size:18;text-anchor:start;writing-mode:lr;fill-opacity:0.75;stroke-opacity:1;stroke-width:3pt;stroke-linejoin:miter;stroke-linecap:butt;"
     x="335.409882"
     y="627.412231"
     id="text669">
    <tspan
       id="tspan670">Wenzel</tspan>
  </text>
  <text
     xml:space="preserve"
     style="fill:black;stroke:none;font-family:DejaVu Sans;font-style:normal;font-weight:bold;font-size:18;text-anchor:start;writing-mode:lr;fill-opacity:0.75;stroke-opacity:1;stroke-width:3pt;stroke-linejoin:miter;stroke-linecap:butt;"
     x="335.111084"
     y="662.710693"
     id="text672">
    <tspan
       id="tspan673">Budimir</tspan>
  </text>
  <path
     style="font-size:12;fill:#ffffff;fill-rule:evenodd;stroke:#000000;stroke-width:0.670781;"
     d="M 544.265 194.882 L 544.265 230.315 L 659.055 230.315 L 659.055 194.882 L 544.265 194.882 z M 544.265 159.449 L 544.265 194.882 L 659.055 194.882 L 659.055 159.449 L 544.265 159.449 z "
     id="path675" />
  <text
     xml:space="preserve"
     style="fill:black;stroke:none;font-family:DejaVu Sans;font-style:normal;font-weight:bold;font-size:18;text-anchor:start;writing-mode:lr;fill-opacity:0.75;stroke-opacity:1;stroke-width:3pt;stroke-linejoin:miter;stroke-linecap:butt;"
     x="560.694458"
     y="183.318466"
     id="text676">
    <tspan
       id="tspan677">Schmidt</tspan>
  </text>
  <text
     xml:space="preserve"
     style="fill:black;stroke:none;font-family:DejaVu Sans;font-style:normal;font-weight:bold;font-size:18;text-anchor:start;writing-mode:lr;fill-opacity:0.75;stroke-opacity:1;stroke-width:3pt;stroke-linejoin:miter;stroke-linecap:butt;"
     x="560.334167"
     y="215.886841"
     id="text679">
    <tspan
       id="tspan680">Brunner</tspan>
  </text>
  <text
     xml:space="preserve"
     style="fill:black;stroke:none;font-family:DejaVu Sans;font-style:normal;font-weight:bold;font-size:18;text-anchor:start;writing-mode:lr;fill-opacity:0.75;stroke-opacity:1;stroke-width:3pt;stroke-linejoin:miter;stroke-linecap:butt;"
     x="560.633301"
     y="538.691284"
     id="text683">
    <tspan
       id="tspan684">Wenzel</tspan>
  </text>
  <text
     xml:space="preserve"
     style="fill:black;stroke:none;font-family:DejaVu Sans;font-style:normal;font-weight:bold;font-size:18;text-anchor:start;writing-mode:lr;fill-opacity:0.75;stroke-opacity:1;stroke-width:3pt;stroke-linejoin:miter;stroke-linecap:butt;"
     x="560.334595"
     y="573.035828"
     id="text686">
    <tspan
       id="tspan687">Iwanicki</tspan>
  </text>
  <path
     style="font-size:12;fill:none;fill-opacity:0.75;fill-rule:evenodd;stroke:#838383;stroke-width:1pt;stroke-opacity:1;"
     d="M 241.093 62.0368 C 249.132 62.0368 257.171 62.0368 265.21 62.0368 C 266.81 62.0368 268.411 62.0368 270.011 62.0368 L 265.21 62.0368 C 266.81 62.0368 268.411 62.0368 270.011 62.0368 L 276.526 62.0368 C 274.053 62.0368 271.583 62.0368 269.111 62.0368 C 271.582 62.0368 274.054 62.0368 276.526 62.0368 M 241.093 150.619 C 244.631 150.619 248.169 150.619 251.708 150.619 C 257.209 150.619 262.71 150.619 268.211 150.619 C 270.982 150.619 273.754 150.619 276.526 150.619 M 276.526 62.0368 C 276.526 71.1162 276.526 80.1955 276.526 89.275 C 276.526 100.477 276.526 111.678 276.526 122.88 C 276.526 128.381 276.526 133.882 276.526 139.383 C 276.526 140.784 276.526 142.184 276.526 143.584 C 276.526 145.929 276.526 148.274 276.526 150.619 M 276.526 106.184 C 280.26 106.184 283.994 106.184 287.728 106.184 C 293.229 106.184 298.73 106.184 304.231 106.184 C 306.807 106.184 309.383 106.184 311.959 106.184 "
     id="path723" />
  <path
     style="font-size:12;fill:none;fill-opacity:0.75;fill-rule:evenodd;stroke:#838383;stroke-width:1pt;stroke-opacity:1;"
     d="M 241.093 239.201 C 249.132 239.201 257.171 239.201 265.21 239.201 C 266.81 239.201 268.411 239.201 270.011 239.201 L 265.21 239.201 C 266.81 239.201 268.411 239.201 270.011 239.201 L 276.526 239.201 C 274.053 239.201 271.583 239.201 269.111 239.201 C 271.582 239.201 274.054 239.201 276.526 239.201 M 241.093 327.784 C 244.631 327.784 248.169 327.784 251.708 327.784 C 257.209 327.784 262.71 327.784 268.211 327.784 C 270.982 327.784 273.754 327.784 276.526 327.784 M 276.526 239.201 C 276.526 248.281 276.526 257.36 276.526 266.439 C 276.526 277.641 276.526 288.843 276.526 300.045 C 276.526 305.546 276.526 311.047 276.526 316.548 C 276.526 317.949 276.526 319.349 276.526 320.749 C 276.526 323.094 276.526 325.439 276.526 327.784 M 276.526 283.349 C 280.26 283.349 283.994 283.349 287.728 283.349 C 293.229 283.349 298.73 283.349 304.231 283.349 C 306.807 283.349 309.383 283.349 311.959 283.349 "
     id="path724" />
  <path
     style="font-size:12;fill:none;fill-opacity:0.75;fill-rule:evenodd;stroke:#838383;stroke-width:1pt;stroke-opacity:1;"
     d="M 241.093 416.366 C 249.132 416.366 257.171 416.366 265.21 416.366 C 266.81 416.366 268.411 416.366 270.011 416.366 L 265.21 416.366 C 266.81 416.366 268.411 416.366 270.011 416.366 L 276.526 416.366 C 274.053 416.366 271.583 416.366 269.111 416.366 C 271.582 416.366 274.054 416.366 276.526 416.366 M 241.093 504.949 C 244.631 504.949 248.169 504.949 251.708 504.949 C 257.209 504.949 262.71 504.949 268.211 504.949 C 270.982 504.949 273.754 504.949 276.526 504.949 M 276.526 416.366 C 276.526 425.446 276.526 434.525 276.526 443.604 C 276.526 454.806 276.526 466.008 276.526 477.21 C 276.526 482.711 276.526 488.212 276.526 493.713 C 276.526 495.114 276.526 496.514 276.526 497.914 C 276.526 500.259 276.526 502.604 276.526 504.949 M 276.526 460.514 C 280.26 460.514 283.994 460.514 287.728 460.514 C 293.229 460.514 298.73 460.514 304.231 460.514 C 306.807 460.514 309.383 460.514 311.959 460.514 "
     id="path725" />
  <path
     style="font-size:12;fill:none;fill-opacity:0.75;fill-rule:evenodd;stroke:#838383;stroke-width:1pt;stroke-opacity:1;"
     d="M 241.093 593.531 C 249.132 593.531 257.171 593.531 265.21 593.531 C 266.81 593.531 268.411 593.531 270.011 593.531 L 265.21 593.531 C 266.81 593.531 268.411 593.531 270.011 593.531 L 276.526 593.531 C 274.053 593.531 271.583 593.531 269.111 593.531 C 271.582 593.531 274.054 593.531 276.526 593.531 M 241.093 682.114 C 244.631 682.114 248.169 682.114 251.708 682.114 C 257.209 682.114 262.71 682.114 268.211 682.114 C 270.982 682.114 273.754 682.114 276.526 682.114 M 276.526 593.531 C 276.526 602.611 276.526 611.69 276.526 620.769 C 276.526 631.971 276.526 643.173 276.526 654.375 C 276.526 659.876 276.526 665.377 276.526 670.878 C 276.526 672.279 276.526 673.679 276.526 675.079 C 276.526 677.424 276.526 679.769 276.526 682.114 M 276.526 637.679 C 280.26 637.679 283.994 637.679 287.728 637.679 C 293.229 637.679 298.73 637.679 304.231 637.679 C 306.807 637.679 309.383 637.679 311.959 637.679 "
     id="path726" />
  <path
     style="font-size:12;fill:none;fill-opacity:0.75;fill-rule:evenodd;stroke:#838383;stroke-width:0.816493pt;"
     d="M 464.173 106.299 C 472.047 106.299 479.921 106.299 487.795 106.299 C 491.732 106.299 495.669 106.299 499.606 106.299 M 499.606 106.299 C 499.606 115.745 499.606 125.191 499.606 134.636 C 499.606 146.518 499.606 158.399 499.606 170.281 C 499.606 182.162 499.606 194.044 499.606 205.925 C 499.606 217.807 499.606 229.688 499.606 241.57 C 499.606 252.886 499.606 264.201 499.606 275.517 C 499.606 278.166 499.606 280.816 499.606 283.465 M 499.606 283.465 C 489.631 283.465 479.658 283.465 469.683 283.465 C 467.846 283.465 466.01 283.465 464.173 283.465 M 499.606 194.882 C 505.002 194.882 510.398 194.882 515.795 194.882 C 519.85 194.882 523.904 194.882 527.959 194.882 C 530.319 194.882 532.679 194.882 535.039 194.882 "
     id="path742" />
  <path
     style="font-size:12;fill:none;fill-opacity:0.75;fill-rule:evenodd;stroke:#838383;stroke-width:0.816493pt;"
     d="M 464.173 460.63 C 472.047 460.63 479.921 460.63 487.795 460.63 C 491.732 460.63 495.669 460.63 499.606 460.63 M 499.606 460.63 C 499.606 470.076 499.606 479.522 499.606 488.967 C 499.606 500.849 499.606 512.73 499.606 524.612 C 499.606 536.493 499.606 548.375 499.606 560.256 C 499.606 572.138 499.606 584.019 499.606 595.901 C 499.606 607.217 499.606 618.532 499.606 629.848 C 499.606 632.497 499.606 635.147 499.606 637.796 M 499.606 637.796 C 489.631 637.796 479.658 637.796 469.683 637.796 C 467.846 637.796 466.01 637.796 464.173 637.796 M 499.606 549.213 C 505.002 549.213 510.398 549.213 515.795 549.213 C 519.85 549.213 523.904 549.213 527.959 549.213 C 530.319 549.213 532.679 549.213 535.039 549.213 "
     id="path743" />
</svg>
