<?xml version="1.0" encoding="UTF-8"?>
<!DOCTYPE svg PUBLIC "-//W3C//DTD SVG 1.1//EN" "http://www.w3.org/Graphics/SVG/1.1/DTD/svg11.dtd">
<svg xmlns="http://www.w3.org/2000/svg" version="1.1" viewBox="0 0 39 39" stroke="none">
	<rect width="100%" height="100%" fill="#FFFFFF"/>
	<path d="M1,1h1v1h-1z M2,1h1v1h-1z M3,1h1v1h-1z M4,1h1v1h-1z M5,1h1v1h-1z M6,1h1v1h-1z M7,1h1v1h-1z M9,1h1v1h-1z M10,1h1v1h-1z M11,1h1v1h-1z M13,1h1v1h-1z M14,1h1v1h-1z M16,1h1v1h-1z M17,1h1v1h-1z M18,1h1v1h-1z M19,1h1v1h-1z M22,1h1v1h-1z M23,1h1v1h-1z M25,1h1v1h-1z M29,1h1v1h-1z M31,1h1v1h-1z M32,1h1v1h-1z M33,1h1v1h-1z M34,1h1v1h-1z M35,1h1v1h-1z M36,1h1v1h-1z M37,1h1v1h-1z M1,2h1v1h-1z M7,2h1v1h-1z M10,2h1v1h-1z M11,2h1v1h-1z M12,2h1v1h-1z M15,2h1v1h-1z M16,2h1v1h-1z M18,2h1v1h-1z M19,2h1v1h-1z M21,2h1v1h-1z M22,2h1v1h-1z M23,2h1v1h-1z M27,2h1v1h-1z M28,2h1v1h-1z M31,2h1v1h-1z M37,2h1v1h-1z M1,3h1v1h-1z M3,3h1v1h-1z M4,3h1v1h-1z M5,3h1v1h-1z M7,3h1v1h-1z M11,3h1v1h-1z M12,3h1v1h-1z M15,3h1v1h-1z M17,3h1v1h-1z M20,3h1v1h-1z M21,3h1v1h-1z M22,3h1v1h-1z M23,3h1v1h-1z M25,3h1v1h-1z M27,3h1v1h-1z M31,3h1v1h-1z M33,3h1v1h-1z M34,3h1v1h-1z M35,3h1v1h-1z M37,3h1v1h-1z M1,4h1v1h-1z M3,4h1v1h-1z M4,4h1v1h-1z M5,4h1v1h-1z M7,4h1v1h-1z M12,4h1v1h-1z M13,4h1v1h-1z M14,4h1v1h-1z M15,4h1v1h-1z M16,4h1v1h-1z M18,4h1v1h-1z M19,4h1v1h-1z M20,4h1v1h-1z M23,4h1v1h-1z M25,4h1v1h-1z M26,4h1v1h-1z M27,4h1v1h-1z M28,4h1v1h-1z M31,4h1v1h-1z M33,4h1v1h-1z M34,4h1v1h-1z M35,4h1v1h-1z M37,4h1v1h-1z M1,5h1v1h-1z M3,5h1v1h-1z M4,5h1v1h-1z M5,5h1v1h-1z M7,5h1v1h-1z M9,5h1v1h-1z M10,5h1v1h-1z M11,5h1v1h-1z M14,5h1v1h-1z M17,5h1v1h-1z M18,5h1v1h-1z M20,5h1v1h-1z M21,5h1v1h-1z M24,5h1v1h-1z M25,5h1v1h-1z M26,5h1v1h-1z M27,5h1v1h-1z M31,5h1v1h-1z M33,5h1v1h-1z M34,5h1v1h-1z M35,5h1v1h-1z M37,5h1v1h-1z M1,6h1v1h-1z M7,6h1v1h-1z M9,6h1v1h-1z M12,6h1v1h-1z M13,6h1v1h-1z M17,6h1v1h-1z M19,6h1v1h-1z M23,6h1v1h-1z M25,6h1v1h-1z M28,6h1v1h-1z M29,6h1v1h-1z M31,6h1v1h-1z M37,6h1v1h-1z M1,7h1v1h-1z M2,7h1v1h-1z M3,7h1v1h-1z M4,7h1v1h-1z M5,7h1v1h-1z M6,7h1v1h-1z M7,7h1v1h-1z M9,7h1v1h-1z M11,7h1v1h-1z M13,7h1v1h-1z M15,7h1v1h-1z M17,7h1v1h-1z M19,7h1v1h-1z M21,7h1v1h-1z M23,7h1v1h-1z M25,7h1v1h-1z M27,7h1v1h-1z M29,7h1v1h-1z M31,7h1v1h-1z M32,7h1v1h-1z M33,7h1v1h-1z M34,7h1v1h-1z M35,7h1v1h-1z M36,7h1v1h-1z M37,7h1v1h-1z M10,8h1v1h-1z M12,8h1v1h-1z M14,8h1v1h-1z M16,8h1v1h-1z M19,8h1v1h-1z M20,8h1v1h-1z M21,8h1v1h-1z M22,8h1v1h-1z M24,8h1v1h-1z M29,8h1v1h-1z M2,9h1v1h-1z M3,9h1v1h-1z M4,9h1v1h-1z M5,9h1v1h-1z M6,9h1v1h-1z M7,9h1v1h-1z M8,9h1v1h-1z M10,9h1v1h-1z M13,9h1v1h-1z M15,9h1v1h-1z M18,9h1v1h-1z M19,9h1v1h-1z M20,9h1v1h-1z M23,9h1v1h-1z M24,9h1v1h-1z M25,9h1v1h-1z M29,9h1v1h-1z M32,9h1v1h-1z M33,9h1v1h-1z M37,9h1v1h-1z M2,10h1v1h-1z M4,10h1v1h-1z M5,10h1v1h-1z M8,10h1v1h-1z M9,10h1v1h-1z M10,10h1v1h-1z M12,10h1v1h-1z M13,10h1v1h-1z M14,10h1v1h-1z M16,10h1v1h-1z M17,10h1v1h-1z M18,10h1v1h-1z M19,10h1v1h-1z M23,10h1v1h-1z M24,10h1v1h-1z M25,10h1v1h-1z M26,10h1v1h-1z M30,10h1v1h-1z M34,10h1v1h-1z M1,11h1v1h-1z M4,11h1v1h-1z M6,11h1v1h-1z M7,11h1v1h-1z M8,11h1v1h-1z M9,11h1v1h-1z M11,11h1v1h-1z M14,11h1v1h-1z M15,11h1v1h-1z M16,11h1v1h-1z M17,11h1v1h-1z M23,11h1v1h-1z M26,11h1v1h-1z M27,11h1v1h-1z M28,11h1v1h-1z M29,11h1v1h-1z M31,11h1v1h-1z M32,11h1v1h-1z M33,11h1v1h-1z M34,11h1v1h-1z M36,11h1v1h-1z M37,11h1v1h-1z M3,12h1v1h-1z M4,12h1v1h-1z M5,12h1v1h-1z M6,12h1v1h-1z M8,12h1v1h-1z M13,12h1v1h-1z M14,12h1v1h-1z M15,12h1v1h-1z M16,12h1v1h-1z M18,12h1v1h-1z M22,12h1v1h-1z M23,12h1v1h-1z M27,12h1v1h-1z M29,12h1v1h-1z M31,12h1v1h-1z M34,12h1v1h-1z M36,12h1v1h-1z M1,13h1v1h-1z M2,13h1v1h-1z M3,13h1v1h-1z M4,13h1v1h-1z M5,13h1v1h-1z M6,13h1v1h-1z M7,13h1v1h-1z M8,13h1v1h-1z M9,13h1v1h-1z M11,13h1v1h-1z M12,13h1v1h-1z M17,13h1v1h-1z M18,13h1v1h-1z M19,13h1v1h-1z M20,13h1v1h-1z M25,13h1v1h-1z M26,13h1v1h-1z M27,13h1v1h-1z M28,13h1v1h-1z M30,13h1v1h-1z M31,13h1v1h-1z M33,13h1v1h-1z M35,13h1v1h-1z M36,13h1v1h-1z M37,13h1v1h-1z M1,14h1v1h-1z M2,14h1v1h-1z M4,14h1v1h-1z M9,14h1v1h-1z M11,14h1v1h-1z M15,14h1v1h-1z M16,14h1v1h-1z M18,14h1v1h-1z M21,14h1v1h-1z M23,14h1v1h-1z M24,14h1v1h-1z M27,14h1v1h-1z M29,14h1v1h-1z M30,14h1v1h-1z M32,14h1v1h-1z M34,14h1v1h-1z M35,14h1v1h-1z M1,15h1v1h-1z M2,15h1v1h-1z M6,15h1v1h-1z M7,15h1v1h-1z M10,15h1v1h-1z M19,15h1v1h-1z M20,15h1v1h-1z M21,15h1v1h-1z M23,15h1v1h-1z M25,15h1v1h-1z M27,15h1v1h-1z M28,15h1v1h-1z M31,15h1v1h-1z M34,15h1v1h-1z M36,15h1v1h-1z M37,15h1v1h-1z M2,16h1v1h-1z M3,16h1v1h-1z M4,16h1v1h-1z M5,16h1v1h-1z M6,16h1v1h-1z M8,16h1v1h-1z M10,16h1v1h-1z M11,16h1v1h-1z M12,16h1v1h-1z M14,16h1v1h-1z M15,16h1v1h-1z M20,16h1v1h-1z M21,16h1v1h-1z M25,16h1v1h-1z M27,16h1v1h-1z M29,16h1v1h-1z M32,16h1v1h-1z M36,16h1v1h-1z M37,16h1v1h-1z M2,17h1v1h-1z M3,17h1v1h-1z M4,17h1v1h-1z M6,17h1v1h-1z M7,17h1v1h-1z M8,17h1v1h-1z M9,17h1v1h-1z M11,17h1v1h-1z M13,17h1v1h-1z M14,17h1v1h-1z M15,17h1v1h-1z M16,17h1v1h-1z M17,17h1v1h-1z M18,17h1v1h-1z M20,17h1v1h-1z M21,17h1v1h-1z M22,17h1v1h-1z M23,17h1v1h-1z M24,17h1v1h-1z M25,17h1v1h-1z M26,17h1v1h-1z M27,17h1v1h-1z M28,17h1v1h-1z M29,17h1v1h-1z M30,17h1v1h-1z M31,17h1v1h-1z M32,17h1v1h-1z M33,17h1v1h-1z M35,17h1v1h-1z M36,17h1v1h-1z M37,17h1v1h-1z M1,18h1v1h-1z M2,18h1v1h-1z M4,18h1v1h-1z M5,18h1v1h-1z M9,18h1v1h-1z M10,18h1v1h-1z M11,18h1v1h-1z M13,18h1v1h-1z M15,18h1v1h-1z M17,18h1v1h-1z M18,18h1v1h-1z M20,18h1v1h-1z M29,18h1v1h-1z M30,18h1v1h-1z M32,18h1v1h-1z M1,19h1v1h-1z M4,19h1v1h-1z M6,19h1v1h-1z M7,19h1v1h-1z M8,19h1v1h-1z M9,19h1v1h-1z M11,19h1v1h-1z M13,19h1v1h-1z M14,19h1v1h-1z M16,19h1v1h-1z M17,19h1v1h-1z M18,19h1v1h-1z M19,19h1v1h-1z M20,19h1v1h-1z M21,19h1v1h-1z M22,19h1v1h-1z M24,19h1v1h-1z M25,19h1v1h-1z M26,19h1v1h-1z M28,19h1v1h-1z M29,19h1v1h-1z M30,19h1v1h-1z M31,19h1v1h-1z M32,19h1v1h-1z M34,19h1v1h-1z M35,19h1v1h-1z M36,19h1v1h-1z M37,19h1v1h-1z M1,20h1v1h-1z M6,20h1v1h-1z M8,20h1v1h-1z M10,20h1v1h-1z M15,20h1v1h-1z M16,20h1v1h-1z M17,20h1v1h-1z M18,20h1v1h-1z M20,20h1v1h-1z M22,20h1v1h-1z M23,20h1v1h-1z M24,20h1v1h-1z M28,20h1v1h-1z M29,20h1v1h-1z M30,20h1v1h-1z M31,20h1v1h-1z M32,20h1v1h-1z M36,20h1v1h-1z M37,20h1v1h-1z M3,21h1v1h-1z M4,21h1v1h-1z M5,21h1v1h-1z M6,21h1v1h-1z M7,21h1v1h-1z M9,21h1v1h-1z M10,21h1v1h-1z M11,21h1v1h-1z M12,21h1v1h-1z M16,21h1v1h-1z M18,21h1v1h-1z M19,21h1v1h-1z M20,21h1v1h-1z M23,21h1v1h-1z M24,21h1v1h-1z M25,21h1v1h-1z M26,21h1v1h-1z M27,21h1v1h-1z M28,21h1v1h-1z M31,21h1v1h-1z M32,21h1v1h-1z M33,21h1v1h-1z M35,21h1v1h-1z M36,21h1v1h-1z M37,21h1v1h-1z M1,22h1v1h-1z M2,22h1v1h-1z M9,22h1v1h-1z M12,22h1v1h-1z M14,22h1v1h-1z M19,22h1v1h-1z M22,22h1v1h-1z M24,22h1v1h-1z M26,22h1v1h-1z M32,22h1v1h-1z M36,22h1v1h-1z M1,23h1v1h-1z M4,23h1v1h-1z M5,23h1v1h-1z M7,23h1v1h-1z M10,23h1v1h-1z M11,23h1v1h-1z M14,23h1v1h-1z M15,23h1v1h-1z M16,23h1v1h-1z M19,23h1v1h-1z M26,23h1v1h-1z M27,23h1v1h-1z M28,23h1v1h-1z M30,23h1v1h-1z M31,23h1v1h-1z M37,23h1v1h-1z M1,24h1v1h-1z M2,24h1v1h-1z M6,24h1v1h-1z M8,24h1v1h-1z M13,24h1v1h-1z M15,24h1v1h-1z M20,24h1v1h-1z M22,24h1v1h-1z M25,24h1v1h-1z M26,24h1v1h-1z M30,24h1v1h-1z M32,24h1v1h-1z M34,24h1v1h-1z M37,24h1v1h-1z M3,25h1v1h-1z M4,25h1v1h-1z M6,25h1v1h-1z M7,25h1v1h-1z M8,25h1v1h-1z M9,25h1v1h-1z M10,25h1v1h-1z M11,25h1v1h-1z M15,25h1v1h-1z M19,25h1v1h-1z M23,25h1v1h-1z M24,25h1v1h-1z M25,25h1v1h-1z M27,25h1v1h-1z M29,25h1v1h-1z M31,25h1v1h-1z M32,25h1v1h-1z M33,25h1v1h-1z M34,25h1v1h-1z M35,25h1v1h-1z M37,25h1v1h-1z M1,26h1v1h-1z M4,26h1v1h-1z M5,26h1v1h-1z M6,26h1v1h-1z M10,26h1v1h-1z M11,26h1v1h-1z M12,26h1v1h-1z M17,26h1v1h-1z M20,26h1v1h-1z M21,26h1v1h-1z M22,26h1v1h-1z M24,26h1v1h-1z M30,26h1v1h-1z M34,26h1v1h-1z M36,26h1v1h-1z M1,27h1v1h-1z M3,27h1v1h-1z M6,27h1v1h-1z M7,27h1v1h-1z M8,27h1v1h-1z M11,27h1v1h-1z M14,27h1v1h-1z M15,27h1v1h-1z M16,27h1v1h-1z M18,27h1v1h-1z M22,27h1v1h-1z M25,27h1v1h-1z M26,27h1v1h-1z M28,27h1v1h-1z M31,27h1v1h-1z M34,27h1v1h-1z M36,27h1v1h-1z M37,27h1v1h-1z M1,28h1v1h-1z M4,28h1v1h-1z M8,28h1v1h-1z M9,28h1v1h-1z M12,28h1v1h-1z M14,28h1v1h-1z M17,28h1v1h-1z M20,28h1v1h-1z M22,28h1v1h-1z M23,28h1v1h-1z M24,28h1v1h-1z M27,28h1v1h-1z M28,28h1v1h-1z M30,28h1v1h-1z M34,28h1v1h-1z M36,28h1v1h-1z M37,28h1v1h-1z M1,29h1v1h-1z M5,29h1v1h-1z M6,29h1v1h-1z M7,29h1v1h-1z M9,29h1v1h-1z M11,29h1v1h-1z M17,29h1v1h-1z M18,29h1v1h-1z M19,29h1v1h-1z M20,29h1v1h-1z M21,29h1v1h-1z M24,29h1v1h-1z M25,29h1v1h-1z M26,29h1v1h-1z M27,29h1v1h-1z M28,29h1v1h-1z M29,29h1v1h-1z M30,29h1v1h-1z M31,29h1v1h-1z M32,29h1v1h-1z M33,29h1v1h-1z M35,29h1v1h-1z M36,29h1v1h-1z M37,29h1v1h-1z M9,30h1v1h-1z M10,30h1v1h-1z M11,30h1v1h-1z M14,30h1v1h-1z M16,30h1v1h-1z M17,30h1v1h-1z M18,30h1v1h-1z M19,30h1v1h-1z M21,30h1v1h-1z M22,30h1v1h-1z M23,30h1v1h-1z M24,30h1v1h-1z M26,30h1v1h-1z M29,30h1v1h-1z M33,30h1v1h-1z M1,31h1v1h-1z M2,31h1v1h-1z M3,31h1v1h-1z M4,31h1v1h-1z M5,31h1v1h-1z M6,31h1v1h-1z M7,31h1v1h-1z M9,31h1v1h-1z M11,31h1v1h-1z M13,31h1v1h-1z M15,31h1v1h-1z M16,31h1v1h-1z M18,31h1v1h-1z M19,31h1v1h-1z M21,31h1v1h-1z M22,31h1v1h-1z M29,31h1v1h-1z M31,31h1v1h-1z M33,31h1v1h-1z M34,31h1v1h-1z M36,31h1v1h-1z M37,31h1v1h-1z M1,32h1v1h-1z M7,32h1v1h-1z M9,32h1v1h-1z M11,32h1v1h-1z M13,32h1v1h-1z M15,32h1v1h-1z M16,32h1v1h-1z M19,32h1v1h-1z M20,32h1v1h-1z M22,32h1v1h-1z M23,32h1v1h-1z M24,32h1v1h-1z M25,32h1v1h-1z M27,32h1v1h-1z M29,32h1v1h-1z M33,32h1v1h-1z M1,33h1v1h-1z M3,33h1v1h-1z M4,33h1v1h-1z M5,33h1v1h-1z M7,33h1v1h-1z M9,33h1v1h-1z M11,33h1v1h-1z M12,33h1v1h-1z M14,33h1v1h-1z M15,33h1v1h-1z M16,33h1v1h-1z M17,33h1v1h-1z M18,33h1v1h-1z M19,33h1v1h-1z M22,33h1v1h-1z M26,33h1v1h-1z M27,33h1v1h-1z M28,33h1v1h-1z M29,33h1v1h-1z M30,33h1v1h-1z M31,33h1v1h-1z M32,33h1v1h-1z M33,33h1v1h-1z M35,33h1v1h-1z M36,33h1v1h-1z M1,34h1v1h-1z M3,34h1v1h-1z M4,34h1v1h-1z M5,34h1v1h-1z M7,34h1v1h-1z M9,34h1v1h-1z M10,34h1v1h-1z M11,34h1v1h-1z M12,34h1v1h-1z M16,34h1v1h-1z M18,34h1v1h-1z M21,34h1v1h-1z M22,34h1v1h-1z M23,34h1v1h-1z M25,34h1v1h-1z M29,34h1v1h-1z M31,34h1v1h-1z M33,34h1v1h-1z M36,34h1v1h-1z M1,35h1v1h-1z M3,35h1v1h-1z M4,35h1v1h-1z M5,35h1v1h-1z M7,35h1v1h-1z M9,35h1v1h-1z M10,35h1v1h-1z M12,35h1v1h-1z M13,35h1v1h-1z M14,35h1v1h-1z M15,35h1v1h-1z M20,35h1v1h-1z M22,35h1v1h-1z M27,35h1v1h-1z M29,35h1v1h-1z M30,35h1v1h-1z M32,35h1v1h-1z M37,35h1v1h-1z M1,36h1v1h-1z M7,36h1v1h-1z M9,36h1v1h-1z M10,36h1v1h-1z M11,36h1v1h-1z M15,36h1v1h-1z M17,36h1v1h-1z M18,36h1v1h-1z M19,36h1v1h-1z M20,36h1v1h-1z M21,36h1v1h-1z M22,36h1v1h-1z M25,36h1v1h-1z M27,36h1v1h-1z M28,36h1v1h-1z M29,36h1v1h-1z M30,36h1v1h-1z M31,36h1v1h-1z M33,36h1v1h-1z M37,36h1v1h-1z M1,37h1v1h-1z M2,37h1v1h-1z M3,37h1v1h-1z M4,37h1v1h-1z M5,37h1v1h-1z M6,37h1v1h-1z M7,37h1v1h-1z M10,37h1v1h-1z M11,37h1v1h-1z M12,37h1v1h-1z M16,37h1v1h-1z M18,37h1v1h-1z M19,37h1v1h-1z M20,37h1v1h-1z M21,37h1v1h-1z M25,37h1v1h-1z M26,37h1v1h-1z M27,37h1v1h-1z M32,37h1v1h-1z M33,37h1v1h-1z M34,37h1v1h-1z M35,37h1v1h-1z M36,37h1v1h-1z M37,37h1v1h-1z" fill="#000000"/>
</svg>
